<svg xmlns="http://www.w3.org/2000/svg" viewBox="0 0 820 960" role="img"><title>Numeric fields in source order, independent axes</title><rect width="100%" height="100%" fill="#0B0F14"/><text x="20" y="20" fill="#edf2f7" font-size="12">/blocchi/*/serie/*/punti/*/1</text><text x="20" y="55" fill="#a9b8c8" font-size="12">max 20975</text><text x="20" y="115" fill="#a9b8c8" font-size="12">min 9050</text><path d="M150 35V120H780" fill="none" stroke="#344353"/><polyline points="150.00,82.03 163.78,82.08 177.56,85.74 191.33,87.28 205.11,87.91 218.89,88.19 232.67,97.03 246.44,113.21 260.22,115.00 274.00,112.67 287.78,101.84 301.56,86.28 315.33,82.27 329.11,82.06 342.89,80.62 356.67,79.47 370.44,76.22 384.22,72.57 398.00,69.35 411.78,67.09 425.56,71.61 439.33,74.71 453.11,74.74 466.89,73.88 480.67,70.76 494.44,67.53 508.22,69.50 522.00,69.50 535.78,69.27 549.56,70.96 563.33,70.08 577.11,73.08 590.89,74.55 604.67,76.07 618.44,74.84 632.22,73.71 646.00,74.80 659.78,76.48 673.56,80.30 687.33,80.87 701.11,76.92 714.89,74.94 728.67,64.60 742.44,59.77 756.22,40.00 770.00,42.65" fill="none" stroke="#6ce5c2" stroke-width="2"/><circle cx="150" cy="82.03" r="3" fill="#6ce5c2"/><text x="150" y="145" fill="#a9b8c8" font-size="12">Source order: 1–46; independent axis</text><text x="20" y="180" fill="#edf2f7" font-size="12">/blocchi/*/tabella/righe/*/1</text><text x="20" y="215" fill="#a9b8c8" font-size="12">max 17</text><text x="20" y="275" fill="#a9b8c8" font-size="12">min 5</text><path d="M150 195V280H780" fill="none" stroke="#344353"/><polyline points="150.00,200.00 460.00,275.00 770.00,268.75" fill="none" stroke="#6ce5c2" stroke-width="2"/><circle cx="150" cy="200.00" r="3" fill="#6ce5c2"/><text x="150" y="305" fill="#a9b8c8" font-size="12">Source order: 1–3; independent axis</text><text x="20" y="340" fill="#edf2f7" font-size="12">/blocchi/*/tabella/righe/*/2</text><text x="20" y="375" fill="#a9b8c8" font-size="12">max 3034</text><text x="20" y="435" fill="#a9b8c8" font-size="12">min 1732</text><path d="M150 355V440H780" fill="none" stroke="#344353"/><polyline points="150.00,360.00 460.00,430.68 770.00,435.00" fill="none" stroke="#6ce5c2" stroke-width="2"/><circle cx="150" cy="360.00" r="3" fill="#6ce5c2"/><text x="150" y="465" fill="#a9b8c8" font-size="12">Source order: 1–3; independent axis</text><text x="20" y="500" fill="#edf2f7" font-size="12">/blocchi/*/tabella/righe/*/3</text><text x="20" y="535" fill="#a9b8c8" font-size="12">max -0.207</text><text x="20" y="595" fill="#a9b8c8" font-size="12">min -0.3337</text><path d="M150 515V600H780" fill="none" stroke="#344353"/><polyline points="150.00,532.90 460.00,595.00 770.00,520.00" fill="none" stroke="#6ce5c2" stroke-width="2"/><circle cx="150" cy="532.90" r="3" fill="#6ce5c2"/><text x="150" y="625" fill="#a9b8c8" font-size="12">Source order: 1–3; independent axis</text><text x="20" y="660" fill="#edf2f7" font-size="12">/blocchi/*/tabella/righe/*/5</text><text x="20" y="695" fill="#a9b8c8" font-size="12">max -0.1029</text><text x="20" y="755" fill="#a9b8c8" font-size="12">min -0.2225</text><path d="M150 675V760H780" fill="none" stroke="#344353"/><polyline points="150.00,680.00 460.00,755.00 770.00,688.59" fill="none" stroke="#6ce5c2" stroke-width="2"/><circle cx="150" cy="680.00" r="3" fill="#6ce5c2"/><text x="150" y="785" fill="#a9b8c8" font-size="12">Source order: 1–3; independent axis</text><text x="20" y="820" fill="#edf2f7" font-size="12">/blocchi/*/tabella/righe/*/7</text><text x="20" y="855" fill="#a9b8c8" font-size="12">max 17</text><text x="20" y="915" fill="#a9b8c8" font-size="12">min 3</text><path d="M150 835V920H780" fill="none" stroke="#344353"/><polyline points="150.00,840.00 460.00,915.00 770.00,909.64" fill="none" stroke="#6ce5c2" stroke-width="2"/><circle cx="150" cy="840.00" r="3" fill="#6ce5c2"/><text x="150" y="945" fill="#a9b8c8" font-size="12">Source order: 1–3; independent axis</text></svg>