<svg xmlns="http://www.w3.org/2000/svg" viewBox="0 0 820 320" role="img"><title>Numeric fields in source order, independent axes</title><rect width="100%" height="100%" fill="#0B0F14"/><text x="20" y="20" fill="#edf2f7" font-size="12">/exchange/*/oi_usd</text><text x="20" y="55" fill="#a9b8c8" font-size="12">max 3.15265e+10</text><text x="20" y="115" fill="#a9b8c8" font-size="12">min 0</text><path d="M150 35V120H780" fill="none" stroke="#344353"/><polyline points="150.00,40.00 182.63,95.34 215.26,112.90 247.89,79.07 280.53,110.41 313.16,107.74 345.79,106.66 378.42,109.81 411.05,81.15 443.68,93.75 476.32,79.65 508.95,115.00 541.58,109.46 574.21,113.93 606.84,115.00 639.47,110.50 672.11,115.00 704.74,115.00 737.37,114.58 770.00,114.74" fill="none" stroke="#6ce5c2" stroke-width="2"/><circle cx="150" cy="40.00" r="3" fill="#6ce5c2"/><text x="150" y="145" fill="#a9b8c8" font-size="12">Source order: 1–20; independent axis</text><text x="20" y="180" fill="#edf2f7" font-size="12">/totale_oi_usd</text><text x="20" y="215" fill="#a9b8c8" font-size="12">max 1.09417e+11</text><text x="20" y="275" fill="#a9b8c8" font-size="12">min 1.09417e+11</text><path d="M150 195V280H780" fill="none" stroke="#344353"/><polyline points="150.00,275.00" fill="none" stroke="#6ce5c2" stroke-width="2"/><circle cx="150" cy="275.00" r="3" fill="#6ce5c2"/><text x="150" y="305" fill="#a9b8c8" font-size="12">Source order: 1–1; independent axis</text></svg>