<svg xmlns="http://www.w3.org/2000/svg" viewBox="0 0 820 960" role="img"><title>Numeric fields in source order, independent axes</title><rect width="100%" height="100%" fill="#0B0F14"/><text x="20" y="20" fill="#edf2f7" font-size="12">/blocchi/*/serie/*/punti/*/1</text><text x="20" y="55" fill="#a9b8c8" font-size="12">max 0.981057</text><text x="20" y="115" fill="#a9b8c8" font-size="12">min 0.91438</text><path d="M150 35V120H780" fill="none" stroke="#344353"/><polyline points="150.00,43.86 156.97,46.91 163.93,48.33 170.90,59.13 177.87,66.77 184.83,74.47 191.80,74.42 198.76,80.20 205.73,91.63 212.70,86.68 219.66,88.69 226.63,92.70 233.60,72.84 240.56,73.44 247.53,58.91 254.49,47.54 261.46,47.36 268.43,40.00 275.39,48.22 282.36,41.75 289.33,48.37 296.29,41.13 303.26,52.49 310.22,44.86 317.19,49.66 324.16,42.29 331.12,53.96 338.09,45.61 345.06,57.45 352.02,44.93 358.99,56.88 365.96,45.46 372.92,56.57 379.89,44.74 386.85,60.18 393.82,49.89 400.79,51.05 407.75,49.75 414.72,48.66 421.69,47.51 428.65,50.82 435.62,49.78 442.58,49.72 449.55,65.74 456.52,68.39 463.48,83.92 470.45,86.49 477.42,92.06 484.38,90.35 491.35,90.22 498.31,89.05 505.28,89.98 512.25,90.17 519.21,88.00 526.18,88.25 533.15,90.75 540.11,96.33 547.08,104.21 554.04,93.26 561.01,100.45 567.98,97.94 574.94,108.55 581.91,98.93 588.88,105.18 595.84,115.00 602.81,104.52 609.78,106.21 616.74,97.20 623.71,99.30 630.67,89.89 637.64,89.96 644.61,88.04 651.57,85.98 658.54,79.03 665.51,70.20 672.47,62.96 679.44,63.68 686.40,62.95 693.37,63.74 700.34,61.35 707.30,61.42 714.27,62.35 721.24,61.65 728.20,60.67 735.17,61.16 742.13,63.83 749.10,62.99 756.07,62.57 763.03,63.52 770.00,47.36" fill="none" stroke="#6ce5c2" stroke-width="2"/><circle cx="150" cy="43.86" r="3" fill="#6ce5c2"/><text x="150" y="145" fill="#a9b8c8" font-size="12">Source order: 1–90; independent axis</text><text x="20" y="180" fill="#edf2f7" font-size="12">/blocchi/*/valori/*/punti/*/1</text><text x="20" y="215" fill="#a9b8c8" font-size="12">max 0.981057</text><text x="20" y="275" fill="#a9b8c8" font-size="12">min 0.91438</text><path d="M150 195V280H780" fill="none" stroke="#344353"/><polyline points="150.00,203.86 156.97,206.91 163.93,208.33 170.90,219.13 177.87,226.77 184.83,234.47 191.80,234.42 198.76,240.20 205.73,251.63 212.70,246.68 219.66,248.69 226.63,252.70 233.60,232.84 240.56,233.44 247.53,218.91 254.49,207.54 261.46,207.36 268.43,200.00 275.39,208.22 282.36,201.75 289.33,208.37 296.29,201.13 303.26,212.49 310.22,204.86 317.19,209.66 324.16,202.29 331.12,213.96 338.09,205.61 345.06,217.45 352.02,204.93 358.99,216.88 365.96,205.46 372.92,216.57 379.89,204.74 386.85,220.18 393.82,209.89 400.79,211.05 407.75,209.75 414.72,208.66 421.69,207.51 428.65,210.82 435.62,209.78 442.58,209.72 449.55,225.74 456.52,228.39 463.48,243.92 470.45,246.49 477.42,252.06 484.38,250.35 491.35,250.22 498.31,249.05 505.28,249.98 512.25,250.17 519.21,248.00 526.18,248.25 533.15,250.75 540.11,256.33 547.08,264.21 554.04,253.26 561.01,260.45 567.98,257.94 574.94,268.55 581.91,258.93 588.88,265.18 595.84,275.00 602.81,264.52 609.78,266.21 616.74,257.20 623.71,259.30 630.67,249.89 637.64,249.96 644.61,248.04 651.57,245.98 658.54,239.03 665.51,230.20 672.47,222.96 679.44,223.68 686.40,222.95 693.37,223.74 700.34,221.35 707.30,221.42 714.27,222.35 721.24,221.65 728.20,220.67 735.17,221.16 742.13,223.83 749.10,222.99 756.07,222.57 763.03,223.52 770.00,207.36" fill="none" stroke="#6ce5c2" stroke-width="2"/><circle cx="150" cy="203.86" r="3" fill="#6ce5c2"/><text x="150" y="305" fill="#a9b8c8" font-size="12">Source order: 1–90; independent axis</text><text x="20" y="340" fill="#edf2f7" font-size="12">/blocchi/*/tabella/righe/*/2</text><text x="20" y="375" fill="#a9b8c8" font-size="12">max 1.76907e+08</text><text x="20" y="435" fill="#a9b8c8" font-size="12">min 1</text><path d="M150 355V440H780" fill="none" stroke="#344353"/><polyline points="150.00,435.00 164.42,435.00 178.84,435.00 193.26,360.00 207.67,387.22 222.09,388.67 236.51,397.89 250.93,411.99 265.35,413.08 279.77,415.47 294.19,419.62 308.60,420.71 323.02,421.59 337.44,423.60 351.86,425.67 366.28,426.54 380.70,426.95 395.12,427.23 409.53,427.35 423.95,430.36 438.37,430.93 452.79,431.67 467.21,431.69 481.63,432.24 496.05,433.10 510.47,433.35 524.88,433.55 539.30,433.76 553.72,433.99 568.14,433.99 582.56,434.03 596.98,434.21 611.40,434.26 625.81,434.29 640.23,434.35 654.65,434.36 669.07,434.46 683.49,434.47 697.91,434.48 712.33,434.50 726.74,434.60 741.16,434.64 755.58,434.68 770.00,434.78" fill="none" stroke="#6ce5c2" stroke-width="2"/><circle cx="150" cy="435.00" r="3" fill="#6ce5c2"/><text x="150" y="465" fill="#a9b8c8" font-size="12">Source order: 1–44; independent axis</text><text x="20" y="500" fill="#edf2f7" font-size="12">/blocchi/*/tabella/righe/*/3</text><text x="20" y="535" fill="#a9b8c8" font-size="12">max 3</text><text x="20" y="595" fill="#a9b8c8" font-size="12">min 0.0001</text><path d="M150 515V600H780" fill="none" stroke="#344353"/><polyline points="150.00,520.00 164.42,545.00 178.84,520.00 193.26,570.00 207.67,570.00 222.09,570.00 236.51,570.00 250.93,570.00 265.35,570.00 279.77,570.00 294.19,570.00 308.60,570.00 323.02,570.00 337.44,570.00 351.86,573.85 366.28,570.00 380.70,580.78 395.12,595.00 409.53,570.00 423.95,570.00 438.37,584.52 452.79,570.00 467.21,570.00 481.63,570.00 496.05,570.00 510.47,570.00 524.88,578.42 539.30,579.75 553.72,570.00 568.14,577.68 582.56,580.04 596.98,570.00 611.40,570.00 625.81,587.85 640.23,576.15 654.65,570.00 669.07,570.00 683.49,570.00 697.91,570.00 712.33,579.22 726.74,577.14 741.16,570.00 755.58,570.00 770.00,582.13" fill="none" stroke="#6ce5c2" stroke-width="2"/><circle cx="150" cy="520.00" r="3" fill="#6ce5c2"/><text x="150" y="625" fill="#a9b8c8" font-size="12">Source order: 1–44; independent axis</text><text x="20" y="660" fill="#edf2f7" font-size="12">/blocchi/*/tabella/righe/*/4</text><text x="20" y="695" fill="#a9b8c8" font-size="12">max 4.11402e+08</text><text x="20" y="755" fill="#a9b8c8" font-size="12">min 0</text><path d="M150 675V760H780" fill="none" stroke="#344353"/><polyline points="150.00,739.35 164.42,741.53 178.84,680.00 193.26,755.00 207.67,755.00 222.09,755.00 236.51,755.00 250.93,755.00 265.35,755.00 279.77,755.00 294.19,755.00 308.60,755.00 323.02,755.00 337.44,755.00 351.86,755.00 366.28,755.00 380.70,755.00 395.12,755.00 409.53,755.00 423.95,755.00 438.37,755.00 452.79,755.00 467.21,755.00 481.63,755.00 496.05,755.00 510.47,755.00 524.88,755.00 539.30,755.00 553.72,755.00 568.14,755.00 582.56,755.00 596.98,755.00 611.40,755.00 625.81,755.00 640.23,755.00 654.65,755.00 669.07,755.00 683.49,755.00 697.91,755.00 712.33,755.00 726.74,755.00 741.16,755.00 755.58,755.00 770.00,755.00" fill="none" stroke="#6ce5c2" stroke-width="2"/><circle cx="150" cy="739.35" r="3" fill="#6ce5c2"/><text x="150" y="785" fill="#a9b8c8" font-size="12">Source order: 1–44; independent axis</text><text x="20" y="820" fill="#edf2f7" font-size="12">/blocchi/*/tabella/righe/*/6</text><text x="20" y="855" fill="#a9b8c8" font-size="12">max 1</text><text x="20" y="915" fill="#a9b8c8" font-size="12">min 0.1107</text><path d="M150 835V920H780" fill="none" stroke="#344353"/><polyline points="150.00,840.00 167.22,840.00 184.44,840.00 201.67,840.00 218.89,840.00 236.11,840.00 253.33,840.00 270.56,840.00 287.78,840.00 305.00,840.00 322.22,852.77 339.44,884.35 356.67,915.00 373.89,840.00 391.11,840.00 408.33,895.27 425.56,840.00 442.78,840.00 460.00,840.00 477.22,840.00 494.44,907.87 511.67,840.00 528.89,898.28 546.11,862.34 563.33,840.00 580.56,840.00 597.78,900.22 615.00,898.06 632.22,840.00 649.44,840.00 666.67,840.00 683.89,840.00 701.11,894.41 718.33,864.08 735.56,840.00 752.78,840.00 770.00,881.34" fill="none" stroke="#6ce5c2" stroke-width="2"/><circle cx="150" cy="840.00" r="3" fill="#6ce5c2"/><text x="150" y="945" fill="#a9b8c8" font-size="12">Source order: 1–37; independent axis</text></svg>